  0
SECTION
  2
HEADER
  9
$ACADVER
  1
AC1014
  9
$HANDSEED
  5
FFFF
  9
$MEASUREMENT
 70
     1
  0
ENDSEC
  0
SECTION
  2
TABLES
  0
TABLE
  2
VPORT
  5
8
330
0
100
AcDbSymbolTable
 70
     4
  0
VPORT
  5
2E
330
8
100
AcDbSymbolTableRecord
100
AcDbViewportTableRecord
  2
*ACTIVE
 70
     0
 10
0.0
 20
0.0
 11
1.0
 21
1.0
 12
210.0
 22
148.5
 13
0.0
 23
0.0
 14
10.0
 24
10.0
 15
10.0
 25
10.0
 16
0.0
 26
0.0
 36
1.0
 17
0.0
 27
0.0
 37
0.0
 40
341.0
 41
1.24
 42
50.0
 43
0.0
 44
0.0
 50
0.0
 51
0.0
 71
     0
 72
   100
 73
     1
 74
     3
 75
     0
 76
     0
 77
     0
 78
     0
  0
ENDTAB
  0
TABLE
  2
LTYPE
  5
5
330
0
100
AcDbSymbolTable
 70
     1
  0
LTYPE
  5
14
330
5
100
AcDbSymbolTableRecord
100
AcDbLinetypeTableRecord
  2
BYBLOCK
 70
     0
  3

 72
    65
 73
     0
 40
0.0
  0
LTYPE
  5
15
330
5
100
AcDbSymbolTableRecord
100
AcDbLinetypeTableRecord
  2
BYLAYER
 70
     0
  3

 72
    65
 73
     0
 40
0.0
  0
LTYPE
  5
16
330
5
100
AcDbSymbolTableRecord
100
AcDbLinetypeTableRecord
  2
CONTINUOUS
 70
     0
  3
Solid line
 72
    65
 73
     0
 40
0.0
  0
ENDTAB
  0
TABLE
  2
LAYER
  5
2
100
AcDbSymbolTable
 70
2
  0
LAYER
  5
50
100
AcDbSymbolTableRecord
100
AcDbLayerTableRecord
  2
0
 70
0
  6
CONTINUOUS
  0
LAYER
  5
51
100
AcDbSymbolTableRecord
100
AcDbLayerTableRecord
  2
Layer_1
 70
0
  6
CONTINUOUS
  0
ENDTAB
  0
TABLE
  2
STYLE
  5
3
330
0
100
AcDbSymbolTable
 70
     1
  0
STYLE
  5
11
330
3
100
AcDbSymbolTableRecord
100
AcDbTextStyleTableRecord
  2
STANDARD
 70
     0
 40
0.0
 41
1.0
 50
0.0
 71
     0
 42
2.5
  3
txt
  4

  0
ENDTAB
  0
TABLE
  2
VIEW
  5
6
330
0
100
AcDbSymbolTable
 70
     0
  0
ENDTAB
  0
TABLE
  2
UCS
  5
7
330
0
100
AcDbSymbolTable
 70
     0
  0
ENDTAB
  0
TABLE
  2
APPID
  5
9
330
0
100
AcDbSymbolTable
 70
     2
  0
APPID
  5
12
330
9
100
AcDbSymbolTableRecord
100
AcDbRegAppTableRecord
  2
ACAD
 70
     0
  0
ENDTAB
  0
TABLE
  2
DIMSTYLE
  5
A
330
0
100
AcDbSymbolTable
 70
     1
  0
DIMSTYLE
105
27
330
A
100
AcDbSymbolTableRecord
100
AcDbDimStyleTableRecord
  2
ISO-25
 70
     0
  3

  4

  5

  6

  7

 40
1.0
 41
2.5
 42
0.625
 43
3.75
 44
1.25
 45
0.0
 46
0.0
 47
0.0
 48
0.0
140
2.5
141
2.5
142
0.0
143
0.03937007874016
144
1.0
145
0.0
146
1.0
147
0.625
 71
     0
 72
     0
 73
     0
 74
     0
 75
     0
 76
     0
 77
     1
 78
     8
170
     0
171
     3
172
     1
173
     0
174
     0
175
     0
176
     0
177
     0
178
     0
270
     2
271
     2
272
     2
273
     2
274
     3
340
11
275
     0
280
     0
281
     0
282
     0
283
     0
284
     8
285
     0
286
     0
287
     3
288
     0
  0
ENDTAB
  0
TABLE
  2
BLOCK_RECORD
  5
1
330
0
100
AcDbSymbolTable
 70
     1
  0
BLOCK_RECORD
  5
1F
330
1
100
AcDbSymbolTableRecord
100
AcDbBlockTableRecord
  2
*MODEL_SPACE
  0
BLOCK_RECORD
  5
1B
330
1
100
AcDbSymbolTableRecord
100
AcDbBlockTableRecord
  2
*PAPER_SPACE
  0
ENDTAB
  0
ENDSEC
  0
SECTION
  2
BLOCKS
  0
BLOCK
  5
20
330
1F
100
AcDbEntity
  8
0
100
AcDbBlockBegin
  2
*MODEL_SPACE
 70
     0
 10
0.0
 20
0.0
 30
0.0
  3
*MODEL_SPACE
  1

  0
ENDBLK
  5
21
330
1F
100
AcDbEntity
  8
0
100
AcDbBlockEnd
  0
BLOCK
  5
1C
330
1B
100
AcDbEntity
 67
     1
  8
0
100
AcDbBlockBegin
  2
*PAPER_SPACE
  1

  0
ENDBLK
  5
1D
330
1B
100
AcDbEntity
 67
     1
  8
0
100
AcDbBlockEnd
  0
ENDSEC
  0
SECTION
  2
ENTITIES
  0
LWPOLYLINE
  5
100
100
AcDbEntity
  8
Layer_1
 62
1
100
AcDbPolyline
 90
66
 70
0
 10
26.675185
 20
8.645477
 30
0.0
 10
26.670810
 20
8.558581
 30
0.0
 10
26.657941
 20
8.474168
 30
0.0
 10
26.637000
 20
8.392719
 30
0.0
 10
26.608417
 20
8.314628
 30
0.0
 10
26.572622
 20
8.240319
 30
0.0
 10
26.530046
 20
8.170243
 30
0.0
 10
26.481115
 20
8.104796
 30
0.0
 10
26.426256
 20
8.044428
 30
0.0
 10
26.365895
 20
7.989564
 30
0.0
 10
26.300459
 20
7.940655
 30
0.0
 10
26.230377
 20
7.898068
 30
0.0
 10
26.156076
 20
7.862282
 30
0.0
 10
26.077983
 20
7.833693
 30
0.0
 10
25.996522
 20
7.812809
 30
0.0
 10
25.912126
 20
7.799826
 30
0.0
 10
25.825219
 20
7.795593
 30
0.0
 10
25.738311
 20
7.799826
 30
0.0
 10
25.653915
 20
7.812809
 30
0.0
 10
25.572458
 20
7.833693
 30
0.0
 10
25.494364
 20
7.862282
 30
0.0
 10
25.420060
 20
7.898068
 30
0.0
 10
25.349979
 20
7.940655
 30
0.0
 10
25.284543
 20
7.989564
 30
0.0
 10
25.224181
 20
8.044428
 30
0.0
 10
25.169323
 20
8.104796
 30
0.0
 10
25.120391
 20
8.170243
 30
0.0
 10
25.077815
 20
8.240319
 30
0.0
 10
25.042021
 20
8.314628
 30
0.0
 10
25.013437
 20
8.392719
 30
0.0
 10
24.992497
 20
8.474168
 30
0.0
 10
24.979627
 20
8.558581
 30
0.0
 10
24.975253
 20
8.645477
 30
0.0
 10
24.979627
 20
8.732373
 30
0.0
 10
24.992497
 20
8.816786
 30
0.0
 10
25.013437
 20
8.898235
 30
0.0
 10
25.042021
 20
8.976326
 30
0.0
 10
25.077815
 20
9.050635
 30
0.0
 10
25.120391
 20
9.120711
 30
0.0
 10
25.169323
 20
9.186158
 30
0.0
 10
25.224181
 20
9.246526
 30
0.0
 10
25.284543
 20
9.301390
 30
0.0
 10
25.349979
 20
9.350299
 30
0.0
 10
25.420060
 20
9.392886
 30
0.0
 10
25.494364
 20
9.428672
 30
0.0
 10
25.572458
 20
9.457261
 30
0.0
 10
25.653915
 20
9.478145
 30
0.0
 10
25.738311
 20
9.491128
 30
0.0
 10
25.825219
 20
9.495361
 30
0.0
 10
25.912126
 20
9.491128
 30
0.0
 10
25.996522
 20
9.478145
 30
0.0
 10
26.077983
 20
9.457261
 30
0.0
 10
26.156076
 20
9.428672
 30
0.0
 10
26.230377
 20
9.392886
 30
0.0
 10
26.300459
 20
9.350299
 30
0.0
 10
26.365895
 20
9.301390
 30
0.0
 10
26.426256
 20
9.246526
 30
0.0
 10
26.481115
 20
9.186158
 30
0.0
 10
26.530046
 20
9.120711
 30
0.0
 10
26.572622
 20
9.050635
 30
0.0
 10
26.608417
 20
8.976326
 30
0.0
 10
26.637000
 20
8.898235
 30
0.0
 10
26.657941
 20
8.816786
 30
0.0
 10
26.670810
 20
8.732373
 30
0.0
 10
26.675185
 20
8.645477
 30
0.0
 10
26.675185
 20
8.645477
 30
0.0
  0
LWPOLYLINE
  5
101
100
AcDbEntity
  8
Layer_1
 62
1
100
AcDbPolyline
 90
524
 70
0
 10
27.201552
 20
45.025217
 30
0.0
 10
27.025998
 20
45.022395
 30
0.0
 10
26.851715
 20
45.012235
 30
0.0
 10
26.678983
 20
44.993608
 30
0.0
 10
26.508095
 20
44.966797
 30
0.0
 10
26.339335
 20
44.931660
 30
0.0
 10
26.172990
 20
44.888452
 30
0.0
 10
26.009352
 20
44.837229
 30
0.0
 10
25.848702
 20
44.778160
 30
0.0
 10
25.691330
 20
44.711329
 30
0.0
 10
25.537524
 20
44.636879
 30
0.0
 10
25.387571
 20
44.554894
 30
0.0
 10
25.241755
 20
44.465486
 30
0.0
 10
25.100367
 20
44.368824
 30
0.0
 10
24.963693
 20
44.264967
 30
0.0
 10
24.832019
 20
44.154053
 30
0.0
 10
24.705635
 20
44.036197
 30
0.0
 10
24.552865
 20
43.882358
 30
0.0
 10
24.417632
 20
43.733994
 30
0.0
 10
24.274264
 20
43.560342
 30
0.0
 10
24.097079
 20
43.330642
 30
0.0
 10
24.068439
 20
43.285345
 30
0.0
 10
24.028250
 20
43.211798
 30
0.0
 10
23.927489
 20
43.010094
 30
0.0
 10
23.823335
 20
42.785671
 30
0.0
 10
23.744329
 20
42.598642
 30
0.0
 10
23.684586
 20
42.416157
 30
0.0
 10
23.619697
 20
42.179937
 30
0.0
 10
23.564201
 20
41.948007
 30
0.0
 10
23.532634
 20
41.778420
 30
0.0
 10
23.514262
 20
41.548239
 30
0.0
 10
23.497385
 20
41.205170
 30
0.0
 10
23.479887
 20
40.781865
 30
0.0
 10
23.356387
 20
40.517225
 30
0.0
 10
23.259243
 20
40.306490
 30
0.0
 10
23.197637
 20
40.182114
 30
0.0
 10
23.159065
 20
40.110373
 30
0.0
 10
23.118247
 20
40.023336
 30
0.0
 10
23.062638
 20
39.901811
 30
0.0
 10
22.985970
 20
39.749976
 30
0.0
 10
22.902934
 20
39.588488
 30
0.0
 10
22.836025
 20
39.441309
 30
0.0
 10
22.728092
 20
39.200940
 30
0.0
 10
22.544998
 20
38.815086
 30
0.0
 10
22.364686
 20
38.437021
 30
0.0
 10
22.262775
 20
38.215364
 30
0.0
 10
22.207279
 20
38.090650
 30
0.0
 10
22.139275
 20
37.950781
 30
0.0
 10
22.069727
 20
37.805323
 30
0.0
 10
22.006997
 20
37.659725
 30
0.0
 10
21.907511
 20
37.419469
 30
0.0
 10
21.823863
 20
37.233174
 30
0.0
 10
21.739177
 20
37.066155
 30
0.0
 10
21.636581
 20
36.883614
 30
0.0
 10
21.518397
 20
36.671383
 30
0.0
 10
21.482383
 20
36.600122
 30
0.0
 10
21.469034
 20
36.566114
 30
0.0
 10
21.458930
 20
36.536622
 30
0.0
 10
21.431809
 20
36.477242
 30
0.0
 10
21.345579
 20
36.301559
 30
0.0
 10
21.252801
 20
36.106854
 30
0.0
 10
21.195625
 20
35.975253
 30
0.0
 10
21.122383
 20
35.818620
 30
0.0
 10
20.992795
 20
35.560754
 30
0.0
 10
20.821565
 20
35.215680
 30
0.0
 10
20.652382
 20
34.860617
 30
0.0
 10
20.512292
 20
34.553531
 30
0.0
 10
20.428356
 20
34.352476
 30
0.0
 10
20.385656
 20
34.242550
 30
0.0
 10
20.348967
 20
34.167225
 30
0.0
 10
20.293401
 20
34.067092
 30
0.0
 10
20.210992
 20
33.898013
 30
0.0
 10
20.120404
 20
33.698200
 30
0.0
 10
20.040301
 20
33.505781
 30
0.0
 10
19.996751
 20
33.399834
 30
0.0
 10
19.951771
 20
33.301508
 30
0.0
 10
19.905681
 20
33.211592
 30
0.0
 10
19.858807
 20
33.130848
 30
0.0
 10
19.811467
 20
33.060039
 30
0.0
 10
19.763986
 20
32.999954
 30
0.0
 10
19.716682
 20
32.951299
 30
0.0
 10
19.669884
 20
32.914920
 30
0.0
 10
19.624269
 20
32.882154
 30
0.0
 10
19.587168
 20
32.848316
 30
0.0
 10
19.560554
 20
32.814731
 30
0.0
 10
19.546415
 20
32.782614
 30
0.0
 10
19.511134
 20
32.671588
 30
0.0
 10
19.449418
 20
32.509706
 30
0.0
 10
19.376664
 20
32.336562
 30
0.0
 10
19.308264
 20
32.191669
 30
0.0
 10
19.249365
 20
32.066984
 30
0.0
 10
19.225573
 20
32.007830
 30
0.0
 10
19.211265
 20
31.962392
 30
0.0
 10
19.164246
 20
31.828449
 30
0.0
 10
19.078959
 20
31.627225
 30
0.0
 10
18.998396
 20
31.444655
 30
0.0
 10
18.964326
 20
31.353836
 30
0.0
 10
18.940901
 20
31.287401
 30
0.0
 10
18.884942
 20
31.168614
 30
0.0
 10
18.814810
 20
31.017427
 30
0.0
 10
18.752662
 20
30.868809
 30
0.0
 10
18.692216
 20
30.726851
 30
0.0
 10
18.629193
 20
30.595364
 30
0.0
 10
18.549713
 20
30.440057
 30
0.0
 10
18.452795
 20
30.233781
 30
0.0
 10
18.333537
 20
29.962368
 30
0.0
 10
18.197023
 20
29.660531
 30
0.0
 10
18.086894
 20
29.418046
 30
0.0
 10
18.049161
 20
29.325054
 30
0.0
 10
18.021080
 20
29.244056
 30
0.0
 10
18.001211
 20
29.169888
 30
0.0
 10
17.988116
 20
29.097470
 30
0.0
 10
17.980383
 20
29.021665
 30
0.0
 10
17.976545
 20
28.937308
 30
0.0
 10
17.975981
 20
28.839095
 30
0.0
 10
17.982613
 20
28.761145
 30
0.0
 10
17.999377
 20
28.689715
 30
0.0
 10
18.029335
 20
28.611003
 30
0.0
 10
18.053521
 20
28.546261
 30
0.0
 10
18.064613
 20
28.505170
 30
0.0
 10
18.110494
 20
28.438311
 30
0.0
 10
18.162925
 20
28.370409
 30
0.0
 10
18.284029
 20
28.235224
 30
0.0
 10
18.421096
 20
28.107124
 30
0.0
 10
18.493486
 20
28.048083
 30
0.0
 10
18.567310
 20
27.993614
 30
0.0
 10
18.745443
 20
27.864441
 30
0.0
 10
18.920082
 20
27.729087
 30
0.0
 10
19.046678
 20
27.628644
 30
0.0
 10
19.178284
 20
27.531052
 30
0.0
 10
19.313082
 20
27.437636
 30
0.0
 10
19.449251
 20
27.349808
 30
0.0
 10
19.528917
 20
27.289695
 30
0.0
 10
19.625637
 20
27.199920
 30
0.0
 10
19.740307
 20
27.120531
 30
0.0
 10
19.951974
 20
26.952948
 30
0.0
 10
20.019563
 20
26.891959
 30
0.0
 10
20.084528
 20
26.812683
 30
0.0
 10
20.144983
 20
26.719155
 30
0.0
 10
20.199040
 20
26.615325
 30
0.0
 10
20.244813
 20
26.505174
 30
0.0
 10
20.280413
 20
26.392736
 30
0.0
 10
20.303950
 20
26.281964
 30
0.0
 10
20.313546
 20
26.176865
 30
0.0
 10
20.325004
 20
26.017889
 30
0.0
 10
20.351561
 20
25.781415
 30
0.0
 10
20.387770
 20
25.506728
 30
0.0
 10
20.428212
 20
25.233170
 30
0.0
 10
20.481129
 20
24.853892
 30
0.0
 10
20.502437
 20
24.744051
 30
0.0
 10
20.534049
 20
24.606947
 30
0.0
 10
20.546241
 20
24.545112
 30
0.0
 10
20.553183
 20
24.489712
 30
0.0
 10
20.554877
 20
24.446617
 30
0.0
 10
20.551490
 20
24.421781
 30
0.0
 10
20.546297
 20
24.412468
 30
0.0
 10
20.542798
 20
24.412468
 30
0.0
 10
20.560295
 20
24.368356
 30
0.0
 10
20.600385
 20
24.258628
 30
0.0
 10
20.656499
 20
24.150566
 30
0.0
 10
20.728443
 20
24.044591
 30
0.0
 10
20.816020
 20
23.940959
 30
0.0
 10
20.919036
 20
23.840036
 30
0.0
 10
21.037296
 20
23.742190
 30
0.0
 10
21.170604
 20
23.647702
 30
0.0
 10
21.318768
 20
23.556968
 30
0.0
 10
21.397242
 20
23.508228
 30
0.0
 10
21.487045
 20
23.445772
 30
0.0
 10
21.576493
 20
23.377164
 30
0.0
 10
21.653904
 20
23.310023
 30
0.0
 10
21.798748
 20
23.176278
 30
0.0
 10
21.918487
 20
23.071912
 30
0.0
 10
22.001045
 20
22.994160
 30
0.0
 10
22.086042
 20
22.895523
 30
0.0
 10
22.103540
 20
22.886774
 30
0.0
 10
22.127755
 20
22.864479
 30
0.0
 10
22.139777
 20
22.847828
 30
0.0
 10
22.140342
 20
22.837386
 30
0.0
 10
22.130323
 20
22.833999
 30
0.0
 10
22.207838
 20
22.718203
 30
0.0
 10
22.280268
 20
22.595860
 30
0.0
 10
22.262770
 20
22.639971
 30
0.0
 10
22.211171
 20
22.735052
 30
0.0
 10
22.206599
 20
22.749163
 30
0.0
 10
22.218622
 20
22.737027
 30
0.0
 10
22.403872
 20
22.516555
 30
0.0
 10
22.483233
 20
22.414193
 30
0.0
 10
22.567725
 20
22.290213
 30
0.0
 10
22.653207
 20
22.152263
 30
0.0
 10
22.735546
 20
22.007991
 30
0.0
 10
22.810600
 20
21.864989
 30
0.0
 10
22.874232
 20
21.730905
 30
0.0
 10
22.922303
 20
21.613360
 30
0.0
 10
22.950678
 20
21.519972
 30
0.0
 10
22.977800
 20
21.435390
 30
0.0
 10
23.021236
 20
21.334750
 30
0.0
 10
23.053164
 20
21.259001
 30
0.0
 10
23.085950
 20
21.161240
 30
0.0
 10
23.118544
 20
21.046149
 30
0.0
 10
23.149887
 20
20.918359
 30
0.0
 10
23.204616
 20
20.643334
 30
0.0
 10
23.225895
 20
20.505412
 30
0.0
 10
23.241700
 20
20.373416
 30
0.0
 10
23.249800
 20
20.241308
 30
0.0
 10
23.252057
 20
20.076942
 30
0.0
 10
23.249235
 20
19.892820
 30
0.0
 10
23.241954
 20
19.701417
 30
0.0
 10
23.230750
 20
19.515178
 30
0.0
 10
23.216272
 20
19.346607
 30
0.0
 10
23.199113
 20
19.208121
 30
0.0
 10
23.179865
 20
19.112250
 30
0.0
 10
23.164935
 20
19.051149
 30
0.0
 10
23.154042
 20
18.990725
 30
0.0
 10
23.144559
 20
18.900583
 30
0.0
 10
23.138096
 20
18.851956
 30
0.0
 10
23.120937
 20
18.786170
 30
0.0
 10
23.059396
 20
18.612773
 30
0.0
 10
22.969516
 20
18.399977
 30
0.0
 10
22.860875
 20
18.167257
 30
0.0
 10
22.743044
 20
17.934141
 30
0.0
 10
22.625603
 20
17.720189
 30
0.0
 10
22.518122
 20
17.544872
 30
0.0
 10
22.471109
 20
17.477816
 30
0.0
 10
22.430178
 20
17.427750
 30
0.0
 10
22.384351
 20
17.367975
 30
0.0
 10
22.350846
 20
17.313083
 30
0.0
 10
22.317924
 20
17.268323
 30
0.0
 10
22.247394
 20
17.183148
 30
0.0
 10
22.033346
 20
16.942638
 30
0.0
 10
21.889971
 20
16.784001
 30
0.0
 10
21.781561
 20
16.653372
 30
0.0
 10
21.699818
 20
16.539495
 30
0.0
 10
21.636454
 20
16.431150
 30
0.0
 10
21.576939
 20
16.315100
 30
0.0
 10
21.557437
 20
16.270481
 30
0.0
 10
21.543411
 20
16.227865
 30
0.0
 10
21.533843
 20
16.181976
 30
0.0
 10
21.527747
 20
16.127620
 30
0.0
 10
21.521793
 20
15.972539
 30
0.0
 10
21.522639
 20
15.778116
 30
0.0
 10
21.532715
 20
15.561539
 30
0.0
 10
21.552781
 20
15.305732
 30
0.0
 10
21.583543
 20
14.993595
 30
0.0
 10
21.636457
 20
14.473225
 30
0.0
 10
21.732051
 20
13.550415
 30
0.0
 10
21.747996
 20
13.361072
 30
0.0
 10
21.751129
 20
13.256141
 30
0.0
 10
21.763829
 20
13.097504
 30
0.0
 10
21.795204
 20
12.894530
 30
0.0
 10
21.826954
 20
12.691669
 30
0.0
 10
21.836352
 20
12.600821
 30
0.0
 10
21.839315
 20
12.532919
 30
0.0
 10
21.843887
 20
12.453106
 30
0.0
 10
21.856672
 20
12.329888
 30
0.0
 10
21.876202
 20
12.180282
 30
0.0
 10
21.901037
 20
12.021419
 30
0.0
 10
21.951168
 20
11.708689
 30
0.0
 10
21.980426
 20
11.492253
 30
0.0
 10
22.033346
 20
10.971919
 30
0.0
 10
22.095065
 20
10.381003
 30
0.0
 10
22.139179
 20
10.001724
 30
0.0
 10
22.174457
 20
9.675447
 30
0.0
 10
22.194861
 20
9.481335
 30
0.0
 10
22.227373
 20
9.225613
 30
0.0
 10
22.259871
 20
8.974379
 30
0.0
 10
22.280248
 20
8.784697
 30
0.0
 10
22.299241
 20
8.611695
 30
0.0
 10
22.328595
 20
8.418853
 30
0.0
 10
22.362445
 20
8.241335
 30
0.0
 10
22.394915
 20
8.114419
 30
0.0
 10
22.410634
 20
8.055491
 30
0.0
 10
22.412328
 20
8.026197
 30
0.0
 10
22.421077
 20
8.008699
 30
0.0
 10
22.447888
 20
7.946949
 30
0.0
 10
22.456637
 20
7.938200
 30
0.0
 10
22.473231
 20
7.904672
 30
0.0
 10
22.476251
 20
7.892536
 30
0.0
 10
22.474276
 20
7.885199
 30
0.0
 10
22.509991
 20
7.799318
 30
0.0
 10
22.553665
 20
7.700033
 30
0.0
 10
22.681573
 20
7.439795
 30
0.0
 10
22.804239
 20
7.215175
 30
0.0
 10
22.928690
 20
7.017535
 30
0.0
 10
22.993779
 20
6.926095
 30
0.0
 10
23.061950
 20
6.838154
 30
0.0
 10
23.134083
 20
6.752641
 30
0.0
 10
23.211051
 20
6.668426
 30
0.0
 10
23.383017
 20
6.499629
 30
0.0
 10
23.584879
 20
6.323099
 30
0.0
 10
23.823665
 20
6.130143
 30
0.0
 10
23.890941
 20
6.082927
 30
0.0
 10
23.983431
 20
6.025523
 30
0.0
 10
24.194081
 20
5.909671
 30
0.0
 10
24.365938
 20
5.827008
 30
0.0
 10
24.528828
 20
5.756650
 30
0.0
 10
24.685995
 20
5.697638
 30
0.0
 10
24.840678
 20
5.649011
 30
0.0
 10
24.996115
 20
5.609810
 30
0.0
 10
25.155548
 20
5.579104
 30
0.0
 10
25.322214
 20
5.555962
 30
0.0
 10
25.499359
 20
5.539311
 30
0.0
 10
25.887415
 20
5.513064
 30
0.0
 10
26.004760
 20
5.517862
 30
0.0
 10
26.190203
 20
5.538464
 30
0.0
 10
26.411663
 20
5.570581
 30
0.0
 10
26.637054
 20
5.610008
 30
0.0
 10
26.736153
 20
5.632868
 30
0.0
 10
26.839952
 20
5.663630
 30
0.0
 10
26.947634
 20
5.701956
 30
0.0
 10
27.058386
 20
5.747337
 30
0.0
 10
27.171396
 20
5.799238
 30
0.0
 10
27.285846
 20
5.857206
 30
0.0
 10
27.400922
 20
5.920734
 30
0.0
 10
27.515809
 20
5.989286
 30
0.0
 10
27.629694
 20
6.062410
 30
0.0
 10
27.741762
 20
6.139569
 30
0.0
 10
27.851196
 20
6.220285
 30
0.0
 10
27.957188
 20
6.304049
 30
0.0
 10
28.058915
 20
6.390380
 30
0.0
 10
28.155567
 20
6.478744
 30
0.0
 10
28.246330
 20
6.568660
 30
0.0
 10
28.330387
 20
6.659649
 30
0.0
 10
28.411670
 20
6.755322
 30
0.0
 10
28.490260
 20
6.854241
 30
0.0
 10
28.632952
 20
7.051627
 30
0.0
 10
28.745629
 20
7.231628
 30
0.0
 10
28.786703
 20
7.308816
 30
0.0
 10
28.815462
 20
7.374038
 30
0.0
 10
28.947756
 20
7.700343
 30
0.0
 10
29.013698
 20
7.885509
 30
0.0
 10
29.086669
 20
8.133018
 30
0.0
 10
29.156330
 20
8.404516
 30
0.0
 10
29.212342
 20
8.661620
 30
0.0
 10
29.220668
 20
8.721931
 30
0.0
 10
29.226679
 20
8.800897
 30
0.0
 10
29.231675
 20
8.988405
 30
0.0
 10
29.227018
 20
9.171285
 30
0.0
 10
29.220950
 20
9.244465
 30
0.0
 10
29.212342
 20
9.296648
 30
0.0
 10
29.197272
 20
9.410469
 30
0.0
 10
29.177065
 20
9.631815
 30
0.0
 10
29.152568
 20
9.919089
 30
0.0
 10
29.124182
 20
10.196260
 30
0.0
 10
29.053607
 20
10.840037
 30
0.0
 10
29.018933
 20
11.141874
 30
0.0
 10
28.991896
 20
11.342731
 30
0.0
 10
28.969544
 20
11.500917
 30
0.0
 10
28.947785
 20
11.704343
 30
0.0
 10
28.921115
 20
11.967430
 30
0.0
 10
28.889441
 20
12.238222
 30
0.0
 10
28.833118
 20
12.648037
 30
0.0
 10
28.808197
 20
12.837098
 30
0.0
 10
28.780229
 20
13.097843
 30
0.0
 10
28.747364
 20
13.412718
 30
0.0
 10
28.709657
 20
13.732843
 30
0.0
 10
28.670665
 20
14.036740
 30
0.0
 10
28.639110
 20
14.314926
 30
0.0
 10
28.614387
 20
14.556988
 30
0.0
 10
28.586221
 20
14.773537
 30
0.0
 10
28.557223
 20
14.981967
 30
0.0
 10
28.533319
 20
15.205713
 30
0.0
 10
28.504783
 20
15.499760
 30
0.0
 10
28.462763
 20
15.875962
 30
0.0
 10
28.401013
 20
16.413963
 30
0.0
 10
28.348319
 20
16.874397
 30
0.0
 10
28.286374
 20
17.375257
 30
0.0
 10
28.226978
 20
17.844169
 30
0.0
 10
28.162902
 20
18.398312
 30
0.0
 10
28.122892
 20
18.781542
 30
0.0
 10
28.083513
 20
19.139146
 30
0.0
 10
28.043898
 20
19.438245
 30
0.0
 10
28.012958
 20
19.685951
 30
0.0
 10
27.982771
 20
19.981579
 30
0.0
 10
27.933597
 20
20.400312
 30
0.0
 10
27.871110
 20
20.885762
 30
0.0
 10
27.818930
 20
21.335201
 30
0.0
 10
27.773458
 20
21.707170
 30
0.0
 10
27.747014
 20
21.876842
 30
0.0
 10
27.721953
 20
22.005479
 30
0.0
 10
27.700391
 20
22.113147
 30
0.0
 10
27.683683
 20
22.224512
 30
0.0
 10
27.672874
 20
22.327777
 30
0.0
 10
27.669036
 20
22.411174
 30
0.0
 10
27.655800
 20
22.645700
 30
0.0
 10
27.624927
 20
22.975618
 30
0.0
 10
27.554372
 20
23.672368
 30
0.0
 10
27.501455
 20
24.130979
 30
0.0
 10
27.404455
 20
24.959979
 30
0.0
 10
27.320695
 20
25.679109
 30
0.0
 10
27.250097
 20
26.223290
 30
0.0
 10
27.192735
 20
26.592211
 30
0.0
 10
27.169028
 20
26.710886
 30
0.0
 10
27.148680
 20
26.785618
 30
0.0
 10
27.089092
 20
26.934857
 30
0.0
 10
27.011966
 20
27.102525
 30
0.0
 10
26.930446
 20
27.261670
 30
0.0
 10
26.857681
 20
27.385340
 30
0.0
 10
26.766523
 20
27.536132
 30
0.0
 10
26.645986
 20
27.755729
 30
0.0
 10
26.384123
 20
28.262289
 30
0.0
 10
26.284375
 20
28.443645
 30
0.0
 10
26.223265
 20
28.553402
 30
0.0
 10
26.122300
 20
28.750223
 30
0.0
 10
25.857482
 20
29.287857
 30
0.0
 10
25.603262
 20
29.822301
 30
0.0
 10
25.515547
 20
30.015143
 30
0.0
 10
25.472985
 20
30.119368
 30
0.0
 10
25.456334
 20
30.200084
 30
0.0
 10
25.451988
 20
30.291721
 30
0.0
 10
25.459806
 20
30.393801
 30
0.0
 10
25.479618
 20
30.505900
 30
0.0
 10
25.511283
 20
30.627537
 30
0.0
 10
25.554646
 20
30.758319
 30
0.0
 10
25.609556
 20
30.897765
 30
0.0
 10
25.675855
 20
31.045424
 30
0.0
 10
25.816966
 20
31.354090
 30
0.0
 10
25.896328
 20
31.512812
 30
0.0
 10
25.945268
 20
31.630019
 30
0.0
 10
26.063911
 20
31.892090
 30
0.0
 10
26.290180
 20
32.374690
 30
0.0
 10
26.637161
 20
33.091507
 30
0.0
 10
26.812477
 20
33.452497
 30
0.0
 10
26.866466
 20
33.576590
 30
0.0
 10
26.905707
 20
33.659733
 30
0.0
 10
26.998772
 20
33.841174
 30
0.0
 10
27.147088
 20
34.138297
 30
0.0
 10
27.316272
 20
34.493812
 30
0.0
 10
27.460632
 20
34.797286
 30
0.0
 10
27.554383
 20
34.978868
 30
0.0
 10
27.628241
 20
35.118511
 30
0.0
 10
27.721995
 20
35.314035
 30
0.0
 10
27.915994
 20
35.719701
 30
0.0
 10
27.978295
 20
35.861546
 30
0.0
 10
28.012994
 20
35.957840
 30
0.0
 10
28.049940
 20
36.042422
 30
0.0
 10
28.110022
 20
36.160673
 30
0.0
 10
28.191376
 20
36.320722
 30
0.0
 10
28.277577
 20
36.504646
 30
0.0
 10
28.360489
 20
36.687356
 30
0.0
 10
28.475153
 20
36.927443
 30
0.0
 10
28.752484
 20
37.485961
 30
0.0
 10
29.015052
 20
37.992578
 30
0.0
 10
29.111267
 20
38.167810
 30
0.0
 10
29.168352
 20
38.259701
 30
0.0
 10
29.250457
 20
38.350690
 30
0.0
 10
29.318266
 20
38.409646
 30
0.0
 10
29.444617
 20
38.501763
 30
0.0
 10
29.568611
 20
38.606157
 30
0.0
 10
29.673262
 20
38.707108
 30
0.0
 10
29.713030
 20
38.751360
 30
0.0
 10
29.741594
 20
38.788868
 30
0.0
 10
29.811935
 20
38.879828
 30
0.0
 10
29.882713
 20
38.956423
 30
0.0
 10
29.963082
 20
39.047073
 30
0.0
 10
30.050667
 20
39.164872
 30
0.0
 10
30.131447
 20
39.288683
 30
0.0
 10
30.191397
 20
39.397424
 30
0.0
 10
30.245507
 20
39.494508
 30
0.0
 10
30.306041
 20
39.582618
 30
0.0
 10
30.355004
 20
39.654867
 30
0.0
 10
30.370724
 20
39.685572
 30
0.0
 10
30.376622
 20
39.706175
 30
0.0
 10
30.381674
 20
39.726777
 30
0.0
 10
30.395079
 20
39.759486
 30
0.0
 10
30.438330
 20
39.847173
 30
0.0
 10
30.467514
 20
39.911237
 30
0.0
 10
30.501090
 20
39.998388
 30
0.0
 10
30.574858
 20
40.219706
 30
0.0
 10
30.646505
 20
40.466425
 30
0.0
 10
30.702916
 20
40.693840
 30
0.0
 10
30.723236
 20
40.808563
 30
0.0
 10
30.741101
 20
40.950013
 30
0.0
 10
30.755946
 20
41.109186
 30
0.0
 10
30.767178
 20
41.277136
 30
0.0
 10
30.774234
 20
41.444974
 30
0.0
 10
30.776491
 20
41.603696
 30
0.0
 10
30.773500
 20
41.744355
 30
0.0
 10
30.764610
 20
41.858006
 30
0.0
 10
30.743810
 20
41.999061
 30
0.0
 10
30.716350
 20
42.142035
 30
0.0
 10
30.682700
 20
42.286194
 30
0.0
 10
30.643339
 20
42.430663
 30
0.0
 10
30.598742
 20
42.574653
 30
0.0
 10
30.549379
 20
42.717373
 30
0.0
 10
30.495731
 20
42.858004
 30
0.0
 10
30.438271
 20
42.995729
 30
0.0
 10
30.394250
 20
43.066200
 30
0.0
 10
30.323629
 20
43.198562
 30
0.0
 10
30.236854
 20
43.350680
 30
0.0
 10
30.156063
 20
43.471979
 30
0.0
 10
30.092108
 20
43.561754
 30
0.0
 10
30.041390
 20
43.639562
 30
0.0
 10
29.984438
 20
43.714097
 30
0.0
 10
29.894852
 20
43.810899
 30
0.0
 10
29.788141
 20
43.914644
 30
0.0
 10
29.679813
 20
44.009951
 30
0.0
 10
29.610741
 20
44.063601
 30
0.0
 10
29.544075
 20
44.104890
 30
0.0
 10
29.468104
 20
44.138418
 30
0.0
 10
29.371129
 20
44.168701
 30
0.0
 10
29.321410
 20
44.186198
 30
0.0
 10
29.263027
 20
44.213292
 30
0.0
 10
29.203577
 20
44.246735
 30
0.0
 10
29.150640
 20
44.283452
 30
0.0
 10
29.052571
 20
44.359539
 30
0.0
 10
28.974248
 20
44.415758
 30
0.0
 10
28.797857
 20
44.530368
 30
0.0
 10
28.712984
 20
44.580999
 30
0.0
 10
28.596398
 20
44.634254
 30
0.0
 10
28.432816
 20
44.695073
 30
0.0
 10
28.206960
 20
44.768508
 30
0.0
 10
28.100811
 20
44.799242
 30
0.0
 10
28.039405
 20
44.812506
 30
0.0
 10
27.990484
 20
44.830568
 30
0.0
 10
27.915932
 20
44.874115
 30
0.0
 10
27.862468
 20
44.903269
 30
0.0
 10
27.793188
 20
44.930644
 30
0.0
 10
27.710884
 20
44.955480
 30
0.0
 10
27.618343
 20
44.977493
 30
0.0
 10
27.518352
 20
44.995838
 30
0.0
 10
27.413695
 20
45.010231
 30
0.0
 10
27.307162
 20
45.019826
 30
0.0
 10
27.201543
 20
45.024342
 30
0.0
 10
27.201317
 20
45.024342
 30
0.0
  0
LWPOLYLINE
  5
102
100
AcDbEntity
  8
Layer_1
 62
1
100
AcDbPolyline
 90
66
 70
0
 10
28.639753
 20
41.076646
 30
0.0
 10
28.631907
 20
40.921395
 30
0.0
 10
28.608906
 20
40.770632
 30
0.0
 10
28.571489
 20
40.625147
 30
0.0
 10
28.520432
 20
40.485644
 30
0.0
 10
28.456495
 20
40.352915
 30
0.0
 10
28.380442
 20
40.227721
 30
0.0
 10
28.293032
 20
40.110853
 30
0.0
 10
28.195036
 20
40.003016
 30
0.0
 10
28.087210
 20
39.905028
 30
0.0
 10
27.970322
 20
39.817624
 30
0.0
 10
27.845134
 20
39.741565
 30
0.0
 10
27.712408
 20
39.677642
 30
0.0
 10
27.572905
 20
39.626588
 30
0.0
 10
27.427394
 20
39.589165
 30
0.0
 10
27.276637
 20
39.566305
 30
0.0
 10
27.121392
 20
39.558403
 30
0.0
 10
26.966145
 20
39.566305
 30
0.0
 10
26.815381
 20
39.589165
 30
0.0
 10
26.669865
 20
39.626588
 30
0.0
 10
26.530362
 20
39.677642
 30
0.0
 10
26.397633
 20
39.741565
 30
0.0
 10
26.272442
 20
39.817624
 30
0.0
 10
26.155552
 20
39.905028
 30
0.0
 10
26.047726
 20
40.003016
 30
0.0
 10
25.949730
 20
40.110853
 30
0.0
 10
25.862320
 20
40.227721
 30
0.0
 10
25.786266
 20
40.352915
 30
0.0
 10
25.722329
 20
40.485644
 30
0.0
 10
25.671269
 20
40.625147
 30
0.0
 10
25.633855
 20
40.770632
 30
0.0
 10
25.610854
 20
40.921395
 30
0.0
 10
25.603008
 20
41.076646
 30
0.0
 10
25.610854
 20
41.231896
 30
0.0
 10
25.633855
 20
41.382659
 30
0.0
 10
25.671269
 20
41.528173
 30
0.0
 10
25.722329
 20
41.667676
 30
0.0
 10
25.786266
 20
41.800405
 30
0.0
 10
25.862320
 20
41.925598
 30
0.0
 10
25.949730
 20
42.042495
 30
0.0
 10
26.047726
 20
42.150332
 30
0.0
 10
26.155552
 20
42.248320
 30
0.0
 10
26.272442
 20
42.335724
 30
0.0
 10
26.397633
 20
42.411783
 30
0.0
 10
26.530362
 20
42.475706
 30
0.0
 10
26.669865
 20
42.526760
 30
0.0
 10
26.815381
 20
42.564183
 30
0.0
 10
26.966145
 20
42.587325
 30
0.0
 10
27.121392
 20
42.595227
 30
0.0
 10
27.276637
 20
42.587325
 30
0.0
 10
27.427394
 20
42.564183
 30
0.0
 10
27.572905
 20
42.526760
 30
0.0
 10
27.712408
 20
42.475706
 30
0.0
 10
27.845134
 20
42.411783
 30
0.0
 10
27.970322
 20
42.335724
 30
0.0
 10
28.087210
 20
42.248320
 30
0.0
 10
28.195036
 20
42.150332
 30
0.0
 10
28.293032
 20
42.042495
 30
0.0
 10
28.380442
 20
41.925598
 30
0.0
 10
28.456495
 20
41.800405
 30
0.0
 10
28.520432
 20
41.667676
 30
0.0
 10
28.571489
 20
41.528173
 30
0.0
 10
28.608906
 20
41.382659
 30
0.0
 10
28.631907
 20
41.231896
 30
0.0
 10
28.639753
 20
41.076646
 30
0.0
 10
28.639753
 20
41.076646
 30
0.0
  0
ENDSEC
  0
SECTION
  2
OBJECTS
  0
DICTIONARY
  5
C
330
0
100
AcDbDictionary
  3
ACAD_GROUP
350
D
  3
ACAD_MLINESTYLE
350
17
  0
DICTIONARY
  5
D
330
C
100
AcDbDictionary
  0
DICTIONARY
  5
1A
330
C
100
AcDbDictionary
  0
DICTIONARY
  5
17
330
C
100
AcDbDictionary
  3
STANDARD
350
18
  0
DICTIONARY
  5
19
330
C
100
AcDbDictionary
  0
ENDSEC
  0
EOF
