  0
SECTION
  2
HEADER
  9
$ACADVER
  1
AC1014
  9
$HANDSEED
  5
FFFF
  9
$MEASUREMENT
 70
     1
  0
ENDSEC
  0
SECTION
  2
TABLES
  0
TABLE
  2
VPORT
  5
8
330
0
100
AcDbSymbolTable
 70
     4
  0
VPORT
  5
2E
330
8
100
AcDbSymbolTableRecord
100
AcDbViewportTableRecord
  2
*ACTIVE
 70
     0
 10
0.0
 20
0.0
 11
1.0
 21
1.0
 12
210.0
 22
148.5
 13
0.0
 23
0.0
 14
10.0
 24
10.0
 15
10.0
 25
10.0
 16
0.0
 26
0.0
 36
1.0
 17
0.0
 27
0.0
 37
0.0
 40
341.0
 41
1.24
 42
50.0
 43
0.0
 44
0.0
 50
0.0
 51
0.0
 71
     0
 72
   100
 73
     1
 74
     3
 75
     0
 76
     0
 77
     0
 78
     0
  0
ENDTAB
  0
TABLE
  2
LTYPE
  5
5
330
0
100
AcDbSymbolTable
 70
     1
  0
LTYPE
  5
14
330
5
100
AcDbSymbolTableRecord
100
AcDbLinetypeTableRecord
  2
BYBLOCK
 70
     0
  3

 72
    65
 73
     0
 40
0.0
  0
LTYPE
  5
15
330
5
100
AcDbSymbolTableRecord
100
AcDbLinetypeTableRecord
  2
BYLAYER
 70
     0
  3

 72
    65
 73
     0
 40
0.0
  0
LTYPE
  5
16
330
5
100
AcDbSymbolTableRecord
100
AcDbLinetypeTableRecord
  2
CONTINUOUS
 70
     0
  3
Solid line
 72
    65
 73
     0
 40
0.0
  0
ENDTAB
  0
TABLE
  2
LAYER
  5
2
100
AcDbSymbolTable
 70
2
  0
LAYER
  5
50
100
AcDbSymbolTableRecord
100
AcDbLayerTableRecord
  2
0
 70
0
  6
CONTINUOUS
  0
LAYER
  5
51
100
AcDbSymbolTableRecord
100
AcDbLayerTableRecord
  2
Layer_1
 70
0
  6
CONTINUOUS
  0
ENDTAB
  0
TABLE
  2
STYLE
  5
3
330
0
100
AcDbSymbolTable
 70
     1
  0
STYLE
  5
11
330
3
100
AcDbSymbolTableRecord
100
AcDbTextStyleTableRecord
  2
STANDARD
 70
     0
 40
0.0
 41
1.0
 50
0.0
 71
     0
 42
2.5
  3
txt
  4

  0
ENDTAB
  0
TABLE
  2
VIEW
  5
6
330
0
100
AcDbSymbolTable
 70
     0
  0
ENDTAB
  0
TABLE
  2
UCS
  5
7
330
0
100
AcDbSymbolTable
 70
     0
  0
ENDTAB
  0
TABLE
  2
APPID
  5
9
330
0
100
AcDbSymbolTable
 70
     2
  0
APPID
  5
12
330
9
100
AcDbSymbolTableRecord
100
AcDbRegAppTableRecord
  2
ACAD
 70
     0
  0
ENDTAB
  0
TABLE
  2
DIMSTYLE
  5
A
330
0
100
AcDbSymbolTable
 70
     1
  0
DIMSTYLE
105
27
330
A
100
AcDbSymbolTableRecord
100
AcDbDimStyleTableRecord
  2
ISO-25
 70
     0
  3

  4

  5

  6

  7

 40
1.0
 41
2.5
 42
0.625
 43
3.75
 44
1.25
 45
0.0
 46
0.0
 47
0.0
 48
0.0
140
2.5
141
2.5
142
0.0
143
0.03937007874016
144
1.0
145
0.0
146
1.0
147
0.625
 71
     0
 72
     0
 73
     0
 74
     0
 75
     0
 76
     0
 77
     1
 78
     8
170
     0
171
     3
172
     1
173
     0
174
     0
175
     0
176
     0
177
     0
178
     0
270
     2
271
     2
272
     2
273
     2
274
     3
340
11
275
     0
280
     0
281
     0
282
     0
283
     0
284
     8
285
     0
286
     0
287
     3
288
     0
  0
ENDTAB
  0
TABLE
  2
BLOCK_RECORD
  5
1
330
0
100
AcDbSymbolTable
 70
     1
  0
BLOCK_RECORD
  5
1F
330
1
100
AcDbSymbolTableRecord
100
AcDbBlockTableRecord
  2
*MODEL_SPACE
  0
BLOCK_RECORD
  5
1B
330
1
100
AcDbSymbolTableRecord
100
AcDbBlockTableRecord
  2
*PAPER_SPACE
  0
ENDTAB
  0
ENDSEC
  0
SECTION
  2
BLOCKS
  0
BLOCK
  5
20
330
1F
100
AcDbEntity
  8
0
100
AcDbBlockBegin
  2
*MODEL_SPACE
 70
     0
 10
0.0
 20
0.0
 30
0.0
  3
*MODEL_SPACE
  1

  0
ENDBLK
  5
21
330
1F
100
AcDbEntity
  8
0
100
AcDbBlockEnd
  0
BLOCK
  5
1C
330
1B
100
AcDbEntity
 67
     1
  8
0
100
AcDbBlockBegin
  2
*PAPER_SPACE
  1

  0
ENDBLK
  5
1D
330
1B
100
AcDbEntity
 67
     1
  8
0
100
AcDbBlockEnd
  0
ENDSEC
  0
SECTION
  2
ENTITIES
  0
LWPOLYLINE
  5
100
100
AcDbEntity
  8
Layer_1
 62
1
100
AcDbPolyline
 90
66
 70
0
 10
28.037757
 20
8.646437
 30
0.0
 10
28.026355
 20
8.420066
 30
0.0
 10
27.992824
 20
8.200130
 30
0.0
 10
27.938265
 20
7.987871
 30
0.0
 10
27.863792
 20
7.784473
 30
0.0
 10
27.770532
 20
7.590813
 30
0.0
 10
27.659602
 20
7.408271
 30
0.0
 10
27.532111
 20
7.237753
 30
0.0
 10
27.389179
 20
7.080442
 30
0.0
 10
27.231908
 20
6.937468
 30
0.0
 10
27.061418
 20
6.810045
 30
0.0
 10
26.878823
 20
6.699131
 30
0.0
 10
26.685235
 20
6.605857
 30
0.0
 10
26.481765
 20
6.531379
 30
0.0
 10
26.269522
 20
6.476938
 30
0.0
 10
26.049632
 20
6.442930
 30
0.0
 10
25.823196
 20
6.431641
 30
0.0
 10
25.596762
 20
6.442930
 30
0.0
 10
25.376872
 20
6.476938
 30
0.0
 10
25.164636
 20
6.531379
 30
0.0
 10
24.961166
 20
6.605857
 30
0.0
 10
24.767570
 20
6.699131
 30
0.0
 10
24.584976
 20
6.810045
 30
0.0
 10
24.414484
 20
6.937468
 30
0.0
 10
24.257214
 20
7.080442
 30
0.0
 10
24.114282
 20
7.237753
 30
0.0
 10
23.986793
 20
7.408271
 30
0.0
 10
23.875862
 20
7.590813
 30
0.0
 10
23.782601
 20
7.784473
 30
0.0
 10
23.708128
 20
7.987871
 30
0.0
 10
23.653569
 20
8.200130
 30
0.0
 10
23.620038
 20
8.420066
 30
0.0
 10
23.608639
 20
8.646437
 30
0.0
 10
23.620038
 20
8.872863
 30
0.0
 10
23.653569
 20
9.092771
 30
0.0
 10
23.708128
 20
9.304974
 30
0.0
 10
23.782601
 20
9.508456
 30
0.0
 10
23.875862
 20
9.702061
 30
0.0
 10
23.986793
 20
9.884658
 30
0.0
 10
24.114282
 20
10.055177
 30
0.0
 10
24.257214
 20
10.212488
 30
0.0
 10
24.414484
 20
10.355405
 30
0.0
 10
24.584976
 20
10.482885
 30
0.0
 10
24.767570
 20
10.593798
 30
0.0
 10
24.961166
 20
10.687016
 30
0.0
 10
25.164636
 20
10.761523
 30
0.0
 10
25.376872
 20
10.815963
 30
0.0
 10
25.596762
 20
10.849999
 30
0.0
 10
25.823196
 20
10.860724
 30
0.0
 10
26.049632
 20
10.849999
 30
0.0
 10
26.269522
 20
10.815963
 30
0.0
 10
26.481765
 20
10.761523
 30
0.0
 10
26.685235
 20
10.687016
 30
0.0
 10
26.878823
 20
10.593798
 30
0.0
 10
27.061418
 20
10.482885
 30
0.0
 10
27.231908
 20
10.355405
 30
0.0
 10
27.389179
 20
10.212488
 30
0.0
 10
27.532111
 20
10.055177
 30
0.0
 10
27.659602
 20
9.884658
 30
0.0
 10
27.770532
 20
9.702061
 30
0.0
 10
27.863792
 20
9.508456
 30
0.0
 10
27.938265
 20
9.304974
 30
0.0
 10
27.992824
 20
9.092771
 30
0.0
 10
28.026355
 20
8.872863
 30
0.0
 10
28.037757
 20
8.646437
 30
0.0
 10
28.037757
 20
8.646437
 30
0.0
  0
LWPOLYLINE
  5
101
100
AcDbEntity
  8
Layer_1
 62
1
100
AcDbPolyline
 90
66
 70
0
 10
26.675185
 20
8.646437
 30
0.0
 10
26.670810
 20
8.559540
 30
0.0
 10
26.657941
 20
8.475128
 30
0.0
 10
26.637000
 20
8.393678
 30
0.0
 10
26.608417
 20
8.315587
 30
0.0
 10
26.572622
 20
8.241278
 30
0.0
 10
26.530046
 20
8.171203
 30
0.0
 10
26.481115
 20
8.105755
 30
0.0
 10
26.426256
 20
8.045388
 30
0.0
 10
26.365895
 20
7.990524
 30
0.0
 10
26.300459
 20
7.941615
 30
0.0
 10
26.230377
 20
7.899027
 30
0.0
 10
26.156076
 20
7.863242
 30
0.0
 10
26.077983
 20
7.834653
 30
0.0
 10
25.996522
 20
7.813768
 30
0.0
 10
25.912126
 20
7.800786
 30
0.0
 10
25.825219
 20
7.796553
 30
0.0
 10
25.738311
 20
7.800786
 30
0.0
 10
25.653915
 20
7.813768
 30
0.0
 10
25.572458
 20
7.834653
 30
0.0
 10
25.494364
 20
7.863242
 30
0.0
 10
25.420060
 20
7.899027
 30
0.0
 10
25.349979
 20
7.941615
 30
0.0
 10
25.284543
 20
7.990524
 30
0.0
 10
25.224181
 20
8.045388
 30
0.0
 10
25.169323
 20
8.105755
 30
0.0
 10
25.120391
 20
8.171203
 30
0.0
 10
25.077815
 20
8.241278
 30
0.0
 10
25.042021
 20
8.315587
 30
0.0
 10
25.013437
 20
8.393678
 30
0.0
 10
24.992497
 20
8.475128
 30
0.0
 10
24.979627
 20
8.559540
 30
0.0
 10
24.975253
 20
8.646437
 30
0.0
 10
24.979627
 20
8.733333
 30
0.0
 10
24.992497
 20
8.817745
 30
0.0
 10
25.013437
 20
8.899195
 30
0.0
 10
25.042021
 20
8.977286
 30
0.0
 10
25.077815
 20
9.051595
 30
0.0
 10
25.120391
 20
9.121671
 30
0.0
 10
25.169323
 20
9.187118
 30
0.0
 10
25.224181
 20
9.247485
 30
0.0
 10
25.284543
 20
9.302349
 30
0.0
 10
25.349979
 20
9.351258
 30
0.0
 10
25.420060
 20
9.393846
 30
0.0
 10
25.494364
 20
9.429631
 30
0.0
 10
25.572458
 20
9.458221
 30
0.0
 10
25.653915
 20
9.479105
 30
0.0
 10
25.738311
 20
9.492087
 30
0.0
 10
25.825219
 20
9.496321
 30
0.0
 10
25.912126
 20
9.492087
 30
0.0
 10
25.996522
 20
9.479105
 30
0.0
 10
26.077983
 20
9.458221
 30
0.0
 10
26.156076
 20
9.429631
 30
0.0
 10
26.230377
 20
9.393846
 30
0.0
 10
26.300459
 20
9.351258
 30
0.0
 10
26.365895
 20
9.302349
 30
0.0
 10
26.426256
 20
9.247485
 30
0.0
 10
26.481115
 20
9.187118
 30
0.0
 10
26.530046
 20
9.121671
 30
0.0
 10
26.572622
 20
9.051595
 30
0.0
 10
26.608417
 20
8.977286
 30
0.0
 10
26.637000
 20
8.899195
 30
0.0
 10
26.657941
 20
8.817745
 30
0.0
 10
26.670810
 20
8.733333
 30
0.0
 10
26.675185
 20
8.646437
 30
0.0
 10
26.675185
 20
8.646437
 30
0.0
  0
ENDSEC
  0
SECTION
  2
OBJECTS
  0
DICTIONARY
  5
C
330
0
100
AcDbDictionary
  3
ACAD_GROUP
350
D
  3
ACAD_MLINESTYLE
350
17
  0
DICTIONARY
  5
D
330
C
100
AcDbDictionary
  0
DICTIONARY
  5
1A
330
C
100
AcDbDictionary
  0
DICTIONARY
  5
17
330
C
100
AcDbDictionary
  3
STANDARD
350
18
  0
DICTIONARY
  5
19
330
C
100
AcDbDictionary
  0
ENDSEC
  0
EOF
