<?xml version="1.0" encoding="UTF-8" standalone="no"?>
<!-- Created with Inkscape (http://www.inkscape.org/) -->

<svg
   xmlns:dc="http://purl.org/dc/elements/1.1/"
   xmlns:cc="http://creativecommons.org/ns#"
   xmlns:rdf="http://www.w3.org/1999/02/22-rdf-syntax-ns#"
   xmlns:svg="http://www.w3.org/2000/svg"
   xmlns="http://www.w3.org/2000/svg"
   xmlns:sodipodi="http://sodipodi.sourceforge.net/DTD/sodipodi-0.dtd"
   xmlns:inkscape="http://www.inkscape.org/namespaces/inkscape"
   inkscape:version="0.48.4 r9939"
   version="1.1"
   id="svg8844"
   height="177.16534"
   width="177.16534"
   sodipodi:docname="New document 6">
  <defs
     id="defs8846">
    <inkscape:path-effect
       effect="spiro"
       id="path-effect9400"
       is_visible="true" />
    <inkscape:path-effect
       effect="spiro"
       id="path-effect8888"
       is_visible="true" />
  </defs>
  <sodipodi:namedview
     id="base"
     pagecolor="#ffffff"
     bordercolor="#666666"
     borderopacity="1.0"
     inkscape:pageopacity="0.0"
     inkscape:pageshadow="2"
     inkscape:zoom="4"
     inkscape:cx="74.922256"
     inkscape:cy="67.428981"
     inkscape:document-units="px"
     inkscape:current-layer="layer1"
     showgrid="false"
     units="mm" />
  <metadata
     id="metadata8849">
    <rdf:RDF>
      <cc:Work
         rdf:about="">
        <dc:format>image/svg+xml</dc:format>
        <dc:type
           rdf:resource="http://purl.org/dc/dcmitype/StillImage" />
        <dc:title></dc:title>
      </cc:Work>
    </rdf:RDF>
  </metadata>
  <g
     inkscape:label="Layer 1"
     inkscape:groupmode="layer"
     id="layer1"
     transform="translate(0,-875.19684)">
    <path
       style="fill:none;stroke:#ff0000;stroke-width:0.04113664;stroke-linecap:square;stroke-linejoin:miter;stroke-miterlimit:4;stroke-opacity:1;stroke-dashoffset:0"
       d="m 94.518371,1021.7286 -0.0155,0.3079 -0.0456,0.2991 -0.0742,0.2886 -0.10128,0.2767 -0.12683,0.2633 -0.15086,0.2483 -0.17338,0.2319 -0.19438,0.2139 -0.21388,0.1944 -0.23186,0.1733 -0.24832,0.1509 -0.26327,0.1268 -0.27671,0.1013 -0.28864,0.074 -0.29904,0.046 -0.307941,0.015 -0.30794,-0.015 -0.29904,-0.046 -0.28863,-0.074 -0.27671,-0.1013 -0.26328,-0.1268 -0.24832,-0.1509 -0.23186,-0.1733 -0.21388,-0.1944 -0.19438,-0.2139 -0.17338,-0.2319 -0.15086,-0.2483 -0.12683,-0.2633 -0.10128,-0.2767 -0.0742,-0.2886 -0.0456,-0.2991 -0.0155,-0.3079 0.0155,-0.3079 0.0456,-0.2991 0.0742,-0.2886 0.10128,-0.2767 0.12683,-0.2633 0.15086,-0.2483 0.17338,-0.2319 0.19438,-0.2139 0.21388,-0.1944 0.23186,-0.1733 0.24832,-0.1509 0.26328,-0.1268 0.27671,-0.1013 0.28863,-0.074 0.29904,-0.046 0.30794,-0.015 0.307941,0.015 0.29904,0.046 0.28864,0.074 0.27671,0.1013 0.26327,0.1268 0.24832,0.1509 0.23186,0.1733 0.21388,0.1944 0.19438,0.2139 0.17338,0.2319 0.15086,0.2483 0.12683,0.2633 0.10128,0.2767 0.0742,0.2886 0.0456,0.2991 0.0155,0.3079 0,0"
       id="path8882" />
    <path
       style="fill:none;stroke:#ff0000;stroke-width:0.04113664;stroke-linecap:square;stroke-linejoin:miter;stroke-miterlimit:4;stroke-opacity:1;stroke-dashoffset:0"
       d="m 96.383451,892.82401 -0.62204,0.01 -0.61754,0.036 -0.61204,0.066 -0.60551,0.095 -0.59797,0.1245 -0.58941,0.1531 -0.57982,0.1815 -0.569231,0.2093 -0.55762,0.2368 -0.54498,0.2638 -0.53133,0.2905 -0.51667,0.3168 -0.50098,0.3425 -0.48428,0.368 -0.46656,0.393 -0.44782,0.4176 -0.54131,0.5451 -0.47917,0.5257 -0.508,0.6153 -0.62782,0.8139 -0.10148,0.1605 -0.1424,0.2606 -0.35703,0.7147 -0.36905,0.7952 -0.27994,0.6627 -0.21169,0.6466 -0.22992,0.837 -0.19664,0.8218 -0.11185,0.6009 -0.0651,0.8156 -0.0598,1.2156 -0.062,1.4999 -0.4376,0.9377 -0.34421,0.7467 -0.21829,0.4407 -0.13667,0.2542 -0.14463,0.3084 -0.19704,0.4306 -0.27166,0.538 -0.29422,0.5722 -0.23708,0.5215 -0.38244,0.8517 -0.64876,1.3672 -0.6389,1.3396 -0.3611,0.7854 -0.19664,0.4419 -0.24096,0.4956 -0.24643,0.5154 -0.22227,0.5159 -0.35251,0.8513 -0.29639,0.6601 -0.30007,0.5918 -0.36353,0.6468 -0.41876,0.752 -0.12761,0.2525 -0.0473,0.1205 -0.0358,0.1045 -0.0961,0.2104 -0.30554,0.6225 -0.32874,0.6899 -0.20259,0.4663 -0.25952,0.555 -0.45917,0.9137 -0.60672,1.2227 -0.59947,1.2581 -0.49638,1.0881 -0.29741,0.7124 -0.1513,0.3895 -0.13,0.2669 -0.19689,0.3548 -0.292,0.5991 -0.32098,0.708 -0.28383,0.6818 -0.15431,0.3754 -0.15938,0.3484 -0.16331,0.3186 -0.16609,0.2861 -0.16774,0.2509 -0.16824,0.2129 -0.16761,0.1724 -0.16582,0.1289 -0.16163,0.1161 -0.13146,0.1199 -0.0943,0.119 -0.0501,0.1138 -0.12501,0.3934 -0.21868,0.5736 -0.25779,0.6135 -0.24236,0.5134 -0.2087,0.4418 -0.0843,0.2096 -0.0507,0.161 -0.1666,0.4746 -0.3022,0.713 -0.28546,0.6469 -0.12072,0.3218 -0.083,0.2354 -0.19828,0.4209 -0.2485,0.5357 -0.22021,0.5266 -0.21418,0.503 -0.22331,0.4659 -0.28162,0.5503 -0.34341,0.7309 -0.42257,0.9617 -0.48371,1.0695 -0.39022,0.8592 -0.1337,0.3295 -0.0995,0.287 -0.0704,0.2628 -0.0464,0.2566 -0.0274,0.2686 -0.0136,0.2989 -0.002,0.348 0.0235,0.2762 0.0594,0.2531 0.10615,0.2789 0.0857,0.2294 0.0393,0.1456 0.16257,0.2369 0.18578,0.2406 0.42911,0.479 0.48567,0.4539 0.2565,0.2092 0.26158,0.193 0.63118,0.4577 0.6188,0.4796 0.44857,0.3559 0.46632,0.3458 0.47763,0.331 0.48249,0.3112 0.28228,0.213 0.34271,0.3181 0.40631,0.2813 0.75,0.5938 0.23949,0.2161 0.23019,0.2809 0.21421,0.3314 0.19154,0.3679 0.16219,0.3903 0.12614,0.3984 0.0834,0.3925 0.034,0.3724 0.0406,0.5633 0.0941,0.8379 0.1283,0.9733 0.1433,0.9693 0.1875,1.3439 0.0755,0.3892 0.11201,0.4858 0.0432,0.2191 0.0246,0.1963 0.006,0.1527 -0.012,0.088 -0.0184,0.033 -0.0124,0 0.062,0.1563 0.14205,0.3888 0.19883,0.3829 0.25492,0.3755 0.31031,0.3672 0.36502,0.3576 0.41903,0.3467 0.47235,0.3348 0.52499,0.3215 0.27806,0.1727 0.3182,0.2213 0.31694,0.2431 0.27429,0.2379 0.51323,0.4739 0.42427,0.3698 0.29253,0.2755 0.30117,0.3495 0.062,0.031 0.0858,0.079 0.0426,0.059 0.002,0.037 -0.0355,0.012 0.27466,0.4103 0.25664,0.4335 -0.062,-0.1563 -0.18283,-0.3369 -0.0162,-0.05 0.0426,0.043 0.6564,0.7812 0.2812,0.3627 0.29938,0.4393 0.30289,0.4888 0.29175,0.5112 0.26594,0.5067 0.22547,0.4751 0.17033,0.4165 0.10054,0.3309 0.0961,0.2997 0.15391,0.3566 0.11313,0.2684 0.11617,0.3464 0.11549,0.4078 0.11106,0.4528 0.19392,0.9745 0.0754,0.4887 0.056,0.4677 0.0287,0.4681 0.008,0.5824 -0.01,0.6524 -0.0258,0.6782 -0.0397,0.6599 -0.0513,0.5973 -0.0608,0.4907 -0.0682,0.3397 -0.0529,0.2165 -0.0386,0.2141 -0.0336,0.3194 -0.0229,0.1723 -0.0608,0.2331 -0.21806,0.6144 -0.31847,0.754 -0.38495,0.8246 -0.41751,0.826 -0.41613,0.7581 -0.38084,0.6212 -0.16658,0.2376 -0.14503,0.1774 -0.16238,0.2118 -0.11872,0.1945 -0.11665,0.1586 -0.24991,0.3018 -0.75844,0.8522 -0.50802,0.5621 -0.38413,0.46286 -0.28964,0.4035 -0.22452,0.3839 -0.21088,0.4112 -0.0691,0.1581 -0.0497,0.151 -0.0339,0.1626 -0.0216,0.1926 -0.0211,0.5495 0.003,0.6889 0.0357,0.7674 0.0711,0.9064 0.109,1.106 0.18749,1.84383 0.33872,3.2698 0.0565,0.6709 0.0111,0.3718 0.045,0.5621 0.11117,0.7192 0.1125,0.7188 0.0333,0.3219 0.0105,0.2406 0.0162,0.2828 0.0453,0.4366 0.0692,0.5301 0.088,0.5629 0.17763,1.1081 0.10367,0.7669 0.18751,1.8437 0.21869,2.0938 0.15631,1.3439 0.125,1.1561 0.0723,0.6878 0.1152,0.9061 0.11515,0.8902 0.0722,0.6721 0.0673,0.613 0.10401,0.6833 0.11994,0.629 0.11505,0.4497 0.0557,0.2088 0.006,0.1038 0.031,0.062 0.095,0.2188 0.031,0.031 0.0588,0.1188 0.0107,0.043 -0.007,0.026 0.12655,0.3043 0.15475,0.3518 0.45322,0.9221 0.43464,0.7959 0.44097,0.7003 0.23063,0.324 0.24155,0.3116 0.25559,0.303 0.27272,0.2984 0.60933,0.5981 0.71526,0.6255 0.84609,0.6837 0.23838,0.1673 0.32772,0.2034 0.7464,0.4105 0.60894,0.2929 0.57717,0.2493 0.55689,0.2091 0.54809,0.1723 0.55076,0.1389 0.56492,0.1088 0.59055,0.082 0.62768,0.059 1.375001,0.093 0.41579,-0.017 0.65708,-0.073 0.7847,-0.1138 0.79863,-0.1397 0.35114,-0.081 0.36779,-0.109 0.38155,-0.1358 0.39243,-0.1608 0.40043,-0.1839 0.40553,-0.2054 0.40775,-0.2251 0.40708,-0.2429 0.40353,-0.2591 0.39709,-0.2734 0.38776,-0.286 0.37556,-0.2968 0.36045,-0.3059 0.34247,-0.3131 0.321599,-0.3186 0.29784,-0.3224 0.28801,-0.339 0.27847,-0.3505 0.5056,-0.6994 0.39925,-0.6378 0.14554,-0.2735 0.1019,-0.2311 0.46876,-1.1562 0.23365,-0.6561 0.25856,-0.877 0.24683,-0.962 0.19847,-0.911 0.0295,-0.2137 0.0213,-0.2798 0.0177,-0.6644 -0.0165,-0.648 -0.0215,-0.2593 -0.0305,-0.1849 -0.0534,-0.4033 -0.0716,-0.7843 -0.0868,-1.0179 -0.10058,-0.9821 -0.25007,-2.2811 -0.12286,-1.0695 -0.0958,-0.7117 -0.0792,-0.5605 -0.0771,-0.7208 -0.0945,-0.9322 -0.11223,-0.9595 -0.19957,-1.4521 -0.0883,-0.6699 -0.0991,-0.9239 -0.11645,-1.1157 -0.13361,-1.1343 -0.13816,-1.0768 -0.11181,-0.9857 -0.0876,-0.8577 -0.0998,-0.7673 -0.10275,-0.73853 -0.0847,-0.7928 -0.10111,-1.0419 -0.14889,-1.333 -0.2188,-1.9063 -0.18671,-1.63146 -0.21949,-1.7747 -0.21046,-1.6615 -0.227039,-1.9635 -0.14177,-1.3579 -0.13953,-1.2671 -0.14037,-1.0598 -0.10963,-0.8777 -0.10696,-1.0475 -0.17424,-1.4837 -0.22141,-1.7201 -0.18489,-1.5925 -0.16112,-1.318 -0.0937,-0.6012 -0.0888,-0.4558 -0.0764,-0.3815 -0.0592,-0.3946 -0.0383,-0.3659 -0.0136,-0.2955 -0.0469,-0.831 -0.10939,-1.169 -0.25,-2.4688 -0.1875,-1.625 -0.3437,-2.9374 -0.29679,-2.5481 -0.25015,-1.9282 -0.20325,-1.3072 -0.084,-0.4205 -0.0721,-0.2648 -0.21114,-0.5288 -0.27328,-0.5941 -0.28885,-0.5639 -0.25783,-0.4382 -0.323,-0.5343 -0.4271,-0.7781 -0.92786,-1.7949 -0.35344,-0.6426 -0.21653,-0.3889 -0.35775,-0.6974 -0.938331,-1.905 -0.90078,-1.8937 -0.3108,-0.6833 -0.15081,-0.3693 -0.059,-0.286 -0.0154,-0.3247 0.0277,-0.3617 0.0702,-0.3972 0.1122,-0.431 0.15365,-0.4634 0.19456,-0.4941 0.23492,-0.5232 0.5,-1.0937 0.281201,-0.5624 0.17341,-0.4153 0.42039,-0.9286 0.80174,-1.71 1.22946,-2.5399 0.6212,-1.2791 0.1913,-0.4397 0.13904,-0.2946 0.32976,-0.6429 0.52553,-1.0528 0.59947,-1.2597 0.51151,-1.0753 0.33219,-0.6434 0.2617,-0.4948 0.3322,-0.6928 0.6874,-1.4374 0.22075,-0.5026 0.12295,-0.3412 0.13091,-0.2997 0.21289,-0.419 0.28826,-0.5671 0.305439,-0.6517 0.29378,-0.6474 0.40629,-0.8507 0.98267,-1.979 0.93036,-1.7951 0.34092,-0.6209 0.20227,-0.3256 0.29092,-0.3224 0.24027,-0.2089 0.4477,-0.3264 0.43935,-0.3699 0.37081,-0.3577 0.14091,-0.1568 0.10121,-0.1329 0.24924,-0.3223 0.25079,-0.2714 0.28477,-0.3212 0.31034,-0.4174 0.28623,-0.4387 0.21242,-0.3853 0.19173,-0.344 0.21449,-0.3122 0.17349,-0.256 0.0557,-0.1088 0.0209,-0.073 0.0179,-0.073 0.0475,-0.1159 0.15325,-0.3107 0.10341,-0.227 0.11897,-0.3088 0.26138,-0.7842 0.25387,-0.8742 0.19988,-0.8058 0.072,-0.4065 0.0633,-0.5012 0.0526,-0.564 0.0398,-0.5951 0.025,-0.5947 0.008,-0.5624 -0.0106,-0.4984 -0.0315,-0.4027 -0.0737,-0.4998 -0.0973,-0.5066 -0.11923,-0.5108 -0.13947,-0.5119 -0.15802,-0.5102 -0.17491,-0.5057 -0.19009,-0.4983 -0.2036,-0.488 -0.15598,-0.2497 -0.25023,-0.469 -0.30747,-0.539 -0.28627,-0.4298 -0.22661,-0.3181 -0.17971,-0.2757 -0.2018,-0.2641 -0.31743,-0.343 -0.37811,-0.3676 -0.38384,-0.3377 -0.24474,-0.1901 -0.23622,-0.1463 -0.26919,-0.1188 -0.34361,-0.1073 -0.17617,-0.062 -0.20687,-0.096 -0.21065,-0.1185 -0.18757,-0.1301 -0.34749,-0.2696 -0.27752,-0.1992 -0.62501,-0.4061 -0.30073,-0.1794 -0.4131,-0.1887 -0.57962,-0.2155 -0.800279,-0.2602 -0.37612,-0.1089 -0.21758,-0.047 -0.17334,-0.064 -0.26416,-0.1543 -0.18944,-0.1033 -0.24548,-0.097 -0.29163,-0.088 -0.3279,-0.078 -0.3543,-0.065 -0.37083,-0.051 -0.37748,-0.034 -0.37424,-0.016 -8e-4,0"
       id="path8880" />
    <path
       style="fill:none;stroke:#ff0000;stroke-width:0.04113664;stroke-linecap:square;stroke-linejoin:miter;stroke-miterlimit:4;stroke-opacity:1;stroke-dashoffset:0"
       d="m 101.47944,906.81501 -0.0278,0.5501 -0.0815,0.5342 -0.13258,0.5155 -0.18091,0.4943 -0.22655,0.4703 -0.26948,0.4436 -0.30972,0.4141 -0.347229,0.3821 -0.38206,0.3472 -0.41417,0.3097 -0.44358,0.2695 -0.47029,0.2265 -0.4943,0.1809 -0.51559,0.1326 -0.53418,0.081 -0.55008,0.028 -0.55009,-0.028 -0.5342,-0.081 -0.51561,-0.1326 -0.4943,-0.1809 -0.4703,-0.2265 -0.44359,-0.2695 -0.41418,-0.3097 -0.38206,-0.3472 -0.34723,-0.3821 -0.309721,-0.4141 -0.26948,-0.4436 -0.22655,-0.4703 -0.18092,-0.4943 -0.13257,-0.5155 -0.0815,-0.5342 -0.0278,-0.5501 0.0278,-0.5501 0.0815,-0.5342 0.13257,-0.5156 0.18092,-0.4943 0.22655,-0.4703 0.26948,-0.4436 0.309721,-0.4142 0.34723,-0.3821 0.38206,-0.3472 0.41418,-0.3097 0.44359,-0.2695 0.4703,-0.2265 0.4943,-0.1809 0.51561,-0.1326 0.5342,-0.082 0.55009,-0.028 0.55008,0.028 0.53418,0.082 0.51559,0.1326 0.4943,0.1809 0.47029,0.2265 0.44358,0.2695 0.41417,0.3097 0.38206,0.3472 0.347229,0.3821 0.30972,0.4142 0.26948,0.4436 0.22655,0.4703 0.18091,0.4943 0.13258,0.5156 0.0815,0.5342 0.0278,0.5501 0,0"
       id="path8799" />
    <path
       id="path8884"
       d="m 99.346383,1021.7252 -0.0404,0.8021 -0.11881,0.7793 -0.19332,0.7521 -0.26388,0.7207 -0.33045,0.6862 -0.39306,0.6468 -0.45174,0.6042 -0.50645,0.5574 -0.55726,0.5066 -0.6041,0.4515 -0.64699,0.393 -0.68594,0.3305 -0.720958,0.2639 -0.752042,0.1929 -0.779138,0.1205 -0.80233,0.04 -0.802328,-0.04 -0.779138,-0.1205 -0.752016,-0.1929 -0.720958,-0.2639 -0.685967,-0.3305 -0.646989,-0.393 -0.604104,-0.4515 -0.557256,-0.5066 -0.506452,-0.5574 -0.451735,-0.6042 -0.393061,-0.6468 -0.330451,-0.6862 -0.263881,-0.7207 -0.193319,-0.7521 -0.118813,-0.7793 -0.04039,-0.8021 0.04039,-0.8023 0.118813,-0.7792 0.193319,-0.7519 0.263881,-0.721 0.330451,-0.686 0.393061,-0.647 0.451735,-0.6042 0.506452,-0.5574 0.557256,-0.5064 0.604104,-0.4517 0.646989,-0.393 0.685967,-0.3303 0.720958,-0.264 0.752016,-0.1929 0.779138,-0.1206 0.802328,-0.038 0.80233,0.038 0.779138,0.1206 0.752042,0.1929 0.720958,0.264 0.68594,0.3303 0.64699,0.393 0.6041,0.4517 0.55726,0.5064 0.50645,0.5574 0.45174,0.6042 0.39306,0.647 0.33045,0.686 0.26388,0.721 0.19332,0.7519 0.11881,0.7792 0.0404,0.8023 0,0"
       style="fill:none;stroke:#ff0000;stroke-width:0.10718011;stroke-linecap:square;stroke-linejoin:miter;stroke-miterlimit:4;stroke-opacity:1;stroke-dashoffset:0"
       inkscape:connector-curvature="0" />
  </g>
</svg>
